<svg id="visual" viewBox="0 0 900 600" width="900" height="600" xmlns="http://www.w3.org/2000/svg" xmlns:xlink="http://www.w3.org/1999/xlink" version="1.1"><path d="M0 145L82 145L82 103L164 103L164 139L245 139L245 139L327 139L327 103L409 103L409 271L491 271L491 175L573 175L573 193L655 193L655 199L736 199L736 97L818 97L818 103L900 103L900 91L900 0L900 0L818 0L818 0L736 0L736 0L655 0L655 0L573 0L573 0L491 0L491 0L409 0L409 0L327 0L327 0L245 0L245 0L164 0L164 0L82 0L82 0L0 0Z" fill="#fa7268"></path><path d="M0 295L82 295L82 325L164 325L164 385L245 385L245 391L327 391L327 355L409 355L409 367L491 367L491 397L573 397L573 295L655 295L655 337L736 337L736 313L818 313L818 337L900 337L900 325L900 89L900 101L818 101L818 95L736 95L736 197L655 197L655 191L573 191L573 173L491 173L491 269L409 269L409 101L327 101L327 137L245 137L245 137L164 137L164 101L82 101L82 143L0 143Z" fill="#ea5e66"></path><path d="M0 397L82 397L82 385L164 385L164 433L245 433L245 469L327 469L327 415L409 415L409 457L491 457L491 469L573 469L573 373L655 373L655 391L736 391L736 379L818 379L818 391L900 391L900 409L900 323L900 335L818 335L818 311L736 311L736 335L655 335L655 293L573 293L573 395L491 395L491 365L409 365L409 353L327 353L327 389L245 389L245 383L164 383L164 323L82 323L82 293L0 293Z" fill="#d84a64"></path><path d="M0 487L82 487L82 481L164 481L164 535L245 535L245 523L327 523L327 493L409 493L409 535L491 535L491 517L573 517L573 469L655 469L655 481L736 481L736 493L818 493L818 457L900 457L900 463L900 407L900 389L818 389L818 377L736 377L736 389L655 389L655 371L573 371L573 467L491 467L491 455L409 455L409 413L327 413L327 467L245 467L245 431L164 431L164 383L82 383L82 395L0 395Z" fill="#c53762"></path><path d="M0 601L82 601L82 601L164 601L164 601L245 601L245 601L327 601L327 601L409 601L409 601L491 601L491 601L573 601L573 601L655 601L655 601L736 601L736 601L818 601L818 601L900 601L900 601L900 461L900 455L818 455L818 491L736 491L736 479L655 479L655 467L573 467L573 515L491 515L491 533L409 533L409 491L327 491L327 521L245 521L245 533L164 533L164 479L82 479L82 485L0 485Z" fill="#b0235f"></path></svg>